<svg xmlns="http://www.w3.org/2000/svg" xmlns:xlink="http://www.w3.org/1999/xlink" width="1280" height="280" viewBox="0 0 338.667 53.896" xmlns:v="https://vecta.io/nano" fill="#ddd"><path d="M29.658 8.563c1.657-2.003 2.831-4.73 2.831-7.492a5.11 5.11 0 0 0-.104-1.07c-2.693.104-5.939 1.795-7.872 4.074-1.519 1.726-2.935 4.488-2.935 7.251a4.74 4.74 0 0 0 .104.967 3.95 3.95 0 0 0 .725.069c2.417 0 5.455-1.623 7.251-3.798zm1.899 4.385c-4.04 0-7.32 2.451-9.426 2.451-2.244 0-5.179-2.313-8.701-2.313C6.767 13.086 0 18.61 0 29.003 0 35.494 2.486 42.33 5.593 46.75c2.659 3.729 4.972 6.802 8.321 6.802 3.315 0 4.765-2.21 8.873-2.21 4.178 0 5.11 2.141 8.77 2.141 3.625 0 6.042-3.315 8.321-6.595 2.555-3.763 3.625-7.423 3.66-7.596-.207-.069-7.147-2.9-7.147-10.841 0-6.871 5.455-9.944 5.766-10.185-3.591-5.179-9.081-5.317-10.6-5.317zm34.412 40.224h8.528L92.244 3.35h-8.321L70.319 44.574h-.173L56.543 3.35h-8.321z"/><use xlink:href="#B"/><path d="M123.675 53.897c8.563 0 14.777-4.558 14.777-11.187v-.035c0-5.214-2.831-8.148-10.254-9.875l-5.904-1.347c-3.902-.932-5.386-2.451-5.386-4.696v-.034c0-2.9 2.52-4.799 6.526-4.799 4.212 0 6.698 2.21 7.147 5.386l.035.242h7.009l-.035-.414c-.38-6.18-5.559-10.98-14.156-10.98-8.355 0-14.018 4.454-14.018 10.945v.035c0 5.283 3.418 8.597 10.323 10.185l5.939 1.347c3.902.932 5.214 2.279 5.214 4.627v.034c0 2.935-2.693 4.799-7.182 4.799-4.592 0-7.078-1.968-7.769-5.317l-.069-.345h-7.389l.035.311c.76 6.629 6.077 11.118 15.157 11.118z"/><use xlink:href="#B" x="47.74"/><path d="M173.945 53.897c10.393 0 17.229-7.182 17.229-18.886v-.069c0-11.635-6.905-18.783-17.263-18.783-10.323 0-17.194 7.182-17.194 18.783v.069c0 11.67 6.802 18.886 17.229 18.886zm.035-6.249c-5.835 0-9.633-4.592-9.633-12.637v-.069c0-7.941 3.832-12.533 9.564-12.533 5.835 0 9.633 4.592 9.633 12.533v.069c0 8.01-3.729 12.637-9.564 12.637zm21.612 5.524h7.458V32.007c0-5.662 3.384-9.46 8.632-9.46 5.179 0 7.734 3.073 7.734 8.528v22.097h7.492V29.659c0-8.355-4.592-13.5-12.568-13.5-5.49 0-9.219 2.486-11.118 6.18h-.173v-5.49h-7.458zm49.274 0h7.734V36.15h10.807c9.771 0 16.538-6.664 16.538-16.4v-.069c0-9.771-6.767-16.331-16.538-16.331h-18.541zm16.607-43.296c6.733 0 10.6 3.625 10.6 9.84v.069c0 6.249-3.867 9.875-10.6 9.875H252.6V9.875zm22.982 43.296h7.458V31.523c0-5.421 2.969-8.563 7.769-8.563 1.45 0 2.762.173 3.349.414v-6.94c-.587-.104-1.519-.276-2.589-.276-4.143 0-7.182 2.659-8.355 6.905h-.173v-6.215h-7.458zm36.983.725c10.393 0 17.229-7.182 17.229-18.886v-.069c0-11.635-6.905-18.783-17.263-18.783-10.323 0-17.194 7.182-17.194 18.783v.069c0 11.67 6.802 18.886 17.229 18.886zm.034-6.249c-5.835 0-9.633-4.592-9.633-12.637v-.069c0-7.941 3.832-12.533 9.564-12.533 5.835 0 9.633 4.592 9.633 12.533v.069c0 8.01-3.729 12.637-9.564 12.637z"/><defs ><path id="B" d="M100.012 11.256c2.451 0 4.35-1.933 4.35-4.281 0-2.382-1.899-4.316-4.35-4.316-2.417 0-4.35 1.933-4.35 4.316 0 2.348 1.933 4.281 4.35 4.281zm-3.729 41.915h7.458V16.849h-7.458z"/></defs></svg>