<svg xmlns="http://www.w3.org/2000/svg" xmlns:xlink="http://www.w3.org/1999/xlink" version="1.1" x="0px" y="0px" viewBox="0 0 64 64" style="enable-background:new 0 0 64 64;" xml:space="preserve"><g><path d="M51.9,62.8H12.1c-3.9,0-7.1-3.2-7.1-7.1V8.3c0-3.9,3.2-7.1,7.1-7.1h39.9c3.9,0,7.1,3.2,7.1,7.1v47.4   C59.1,59.6,55.9,62.8,51.9,62.8z M12.1,5.6c-1.5,0-2.7,1.2-2.7,2.7v47.4c0,1.5,1.2,2.7,2.7,2.7h39.9c1.5,0,2.7-1.2,2.7-2.7V8.3   c0-1.5-1.2-2.7-2.7-2.7H12.1z"/><g><path d="M31.7,29.1C31.7,29.1,31.7,29.1,31.7,29.1c0,0.2-0.2,0.3-0.4,0.3H14.5c-0.2,0-0.3-0.1-0.4-0.3c0,0,0,0,0,0    c-0.1-0.8-0.1-4,0.4-4.7c0.5-0.7,4.8-2.4,5.4-2.6c0.1,0,0.2,0,0.2,0.1l2.5,2.7c0.1,0.1,0.2,0.1,0.3,0l2.5-2.7    c0-0.1,0.1-0.1,0.2-0.1c0.6,0.2,5,1.9,5.5,2.6C31.8,25.1,31.8,28.3,31.7,29.1z"/><path d="M26.9,15.7c0-0.6-0.1-1.1-0.3-1.3c-0.4-2-1.9-2.7-3.6-2.7c-1.8,0-3.4,0.8-3.7,3c-0.2,0.2-0.3,0.7-0.3,1.2    c0,0.7,0.2,1.3,0.5,1.4c0.5,2.1,1.9,3.7,3.5,3.7c1.7,0,3.1-1.8,3.6-4C26.7,16.8,26.9,16.3,26.9,15.7z"/></g><path d="M49,18.7H37.1c-0.5,0-0.9-0.4-0.9-0.9c0-0.5,0.4-0.9,0.9-0.9H49c0.5,0,0.9,0.4,0.9,0.9C49.9,18.3,49.5,18.7,49,18.7z"/><path d="M49,24.2H37.1c-0.5,0-0.9-0.4-0.9-0.9s0.4-0.9,0.9-0.9H49c0.5,0,0.9,0.4,0.9,0.9S49.5,24.2,49,24.2z"/><path d="M49,38H15c-0.5,0-0.9-0.4-0.9-0.9c0-0.5,0.4-0.9,0.9-0.9h34c0.5,0,0.9,0.4,0.9,0.9C49.9,37.6,49.5,38,49,38z"/><path d="M49,45.2H15c-0.5,0-0.9-0.4-0.9-0.9c0-0.5,0.4-0.9,0.9-0.9h34c0.5,0,0.9,0.4,0.9,0.9C49.9,44.8,49.5,45.2,49,45.2z"/><path d="M49,52.3H15c-0.5,0-0.9-0.4-0.9-0.9c0-0.5,0.4-0.9,0.9-0.9h34c0.5,0,0.9,0.4,0.9,0.9C49.9,51.9,49.5,52.3,49,52.3z"/></g></svg>
