<?xml version="1.0" encoding="utf-8"?>
<!-- Generator: Adobe Illustrator 21.1.0, SVG Export Plug-In . SVG Version: 6.00 Build 0)  -->
<svg version="1.1" id="Layer_1" xmlns="http://www.w3.org/2000/svg" xmlns:xlink="http://www.w3.org/1999/xlink" x="0px" y="0px"
	 viewBox="0 0 200 200" style="enable-background:new 0 0 200 200;" xml:space="preserve">
<style type="text/css">
	.st0{fill:#FFFFFF;}
</style>
<title>clock</title>
<desc>Created with Sketch.</desc>
<g id="Octicons">
	<g id="clock">
		<path id="Shape" class="st0" d="M114.3,100h42.9v28.6H100c-7.9,0-14.3-6.4-14.3-14.3V42.9h28.6L114.3,100L114.3,100z M100,18.6
			c44.9,0,81.4,36.6,81.4,81.4s-36.6,81.4-81.4,81.4S18.6,144.9,18.6,100S55.1,18.6,100,18.6L100,18.6z M100,0C44.9,0,0,44.9,0,100
			s44.9,100,100,100s100-44.9,100-100S155.1,0,100,0L100,0z"/>
	</g>
</g>
</svg>
