<svg xmlns="http://www.w3.org/2000/svg" xmlns:xlink="http://www.w3.org/1999/xlink" version="1.1" x="0px" y="0px" viewBox="0 0 24 24" enable-background="new 0 0 24 24" xml:space="preserve"><g fill="#9d7"><path d="M18.691,21.063c-2.416,0-4.383-1.966-4.383-4.384c0-2.416,1.967-4.383,4.383-4.383c2.417,0,4.384,1.967,4.384,4.383   C23.075,19.097,21.108,21.063,18.691,21.063z M18.691,14.007c-1.473,0-2.671,1.199-2.671,2.672c0,1.474,1.198,2.672,2.671,2.672   c1.474,0,2.672-1.198,2.672-2.672C21.363,15.206,20.165,14.007,18.691,14.007z"/></g><g fill="#9d7"><path d="M5.317,21.063c-2.417,0-4.384-1.966-4.384-4.384c0-2.416,1.967-4.383,4.384-4.383c2.417,0,4.384,1.967,4.384,4.383   C9.701,19.097,7.734,21.063,5.317,21.063z M5.317,14.007c-1.474,0-2.672,1.199-2.672,2.672c0,1.474,1.199,2.672,2.672,2.672   c1.474,0,2.672-1.198,2.672-2.672C7.989,15.206,6.791,14.007,5.317,14.007z"/></g><g fill="#9d7"><path d="M12.321,18.915c-0.525,0-1.018-0.324-1.207-0.846l-1.646-4.526c-0.199-0.546-0.005-1.158,0.47-1.491l2.365-1.655   L10.46,8.503l-1.603,1.44c-0.528,0.474-1.339,0.429-1.813-0.097c-0.473-0.528-0.43-1.339,0.097-1.813L9.662,5.77   c0.513-0.46,1.298-0.433,1.777,0.06l3.756,3.859c0.262,0.27,0.394,0.641,0.357,1.016c-0.035,0.375-0.233,0.715-0.541,0.931   l-2.795,1.955l1.31,3.602c0.242,0.668-0.102,1.402-0.768,1.645C12.614,18.89,12.465,18.915,12.321,18.915z"/></g><g fill="#9d7"><circle cx="7.64" cy="4.065" r="1.833"/></g><g fill="#9d7"><path d="M15.681,9.243c-0.357,0-0.714-0.149-0.968-0.44l-2.091-2.401c-0.466-0.534-0.41-1.345,0.125-1.811   c0.534-0.465,1.345-0.41,1.81,0.125l2.093,2.401c0.465,0.534,0.409,1.345-0.126,1.811C16.281,9.139,15.98,9.243,15.681,9.243z"/></g></svg>
