<?xml version="1.0" encoding="utf-8"?>
<!-- Generator: Adobe Illustrator 21.1.0, SVG Export Plug-In . SVG Version: 6.00 Build 0)  -->
<svg version="1.1" id="Layer_1" xmlns="http://www.w3.org/2000/svg" xmlns:xlink="http://www.w3.org/1999/xlink" x="0px" y="0px"
	 viewBox="0 0 200 200" style="enable-background:new 0 0 200 200;" xml:space="preserve">
<style type="text/css">
	.st0{fill:#BD4F5A;}
</style>
<title>heart</title>
<desc>Created with Sketch.</desc>
<g id="Octicons">
	<g id="heart">
		<path id="Shape" class="st0" d="M186.7,24.5C178,14,165.8,8.7,150,7.8c-16.2,0-28.2,7-36.7,16.7s-13,15.3-13.3,16.7
			c-0.3-1.3-4.7-7-13.3-16.7S67.2,7.8,50,7.8c-15.8,0.8-28.2,6.3-36.7,16.7C4.7,34.7,0.3,45.8,0,57.8c0,8.7,1.5,25.3,11.2,44.5
			s39,49,88.8,88.8c49.7-39.8,79.5-69.5,89-88.8s11-36.2,11-44.5c-0.3-12-4.7-23.2-13.3-33.7V24.5z"/>
	</g>
</g>
</svg>
