<!-- Generator: Adobe Illustrator 21.1.0, SVG Export Plug-In  -->
<svg version="1.1"
	 xmlns="http://www.w3.org/2000/svg" xmlns:xlink="http://www.w3.org/1999/xlink" xmlns:a="http://ns.adobe.com/AdobeSVGViewerExtensions/3.0/"
	 x="0px" y="0px" width="629.7px" height="290.2px" viewBox="0 0 629.7 290.2" style="enable-background:new 0 0 629.7 290.2;"
	 xml:space="preserve">
<style type="text/css">
	.st0{fill:#C1AA77;}
	.st1{fill:none;stroke:#C1AA77;stroke-width:8;stroke-linecap:round;stroke-miterlimit:10;}
</style>
<defs>
</defs>
<g>
	<g>
		<g>
			<path class="st0" d="M275.8,91.2c-1.7,0-3.3-1.1-3.8-2.9c-0.6-2.1,0.6-4.3,2.7-5c28.8-8.5,60.7-20.4,75.8-55.1
				c0.9-2,3.2-3,5.3-2.1c2,0.9,3,3.2,2.1,5.3c-16.5,37.9-50.4,50.6-80.9,59.6C276.5,91.2,276.1,91.2,275.8,91.2z"/>
		</g>
		<g>
			<path class="st0" d="M278.2,274.5c-0.3,0-0.5,0-0.8-0.1c-2.2-0.4-3.6-2.5-3.1-4.7c1.8-8.9,20-68.8,36.2-120.7
				c8-25.6,34.6-110.1,40-120.9c1-2,3.4-2.8,5.4-1.8c2,1,2.8,3.4,1.8,5.4c-7.8,15.6-72.4,223.7-75.6,239.6
				C281.7,273.2,280.1,274.5,278.2,274.5z"/>
		</g>
		<g>
			<path class="st0" d="M278.2,274.5c-0.1,0-0.3,0-0.4,0c-2.2-0.2-3.8-2.2-3.6-4.4c6.2-60.8-15.7-110.8-19.8-114.9
				c-1.7-1.3-2.1-3.7-1-5.4c1.2-1.8,3.7-2.3,5.5-1.1c4.3,2.9,11.6,20.1,16.6,39.2c4.9,19,10.1,48.8,6.6,83.1
				C282,273,280.2,274.5,278.2,274.5z M254.5,155.3C254.5,155.3,254.6,155.3,254.5,155.3C254.6,155.3,254.5,155.3,254.5,155.3z"/>
		</g>
		<g>
			<path class="st0" d="M256.8,156c-2.2,0-4-1.8-4-4s1.8-4,4-4c10.7,0,39.1-9.5,77.9-26.1c32-13.7,65.9-30.1,79-38.3
				c1.9-1.2,4.3-0.6,5.5,1.3c1.2,1.9,0.6,4.3-1.3,5.5C391.7,106.8,283.8,156,256.8,156z"/>
		</g>
		<g>
			<path class="st0" d="M354.9,210.7c-0.2,0-0.5,0-0.7-0.1c-2.2-0.4-3.6-2.5-3.2-4.6c4.2-23.6,36.8-126.5,52.5-176
				c2.6-8.1,4.6-14.5,5.8-18.3c0.7-2.1,2.9-3.3,5-2.6c2.1,0.7,3.3,2.9,2.6,5c-1.2,3.8-3.2,10.2-5.8,18.3
				c-14.4,45.4-48.1,151.8-52.2,175C358.5,209.3,356.8,210.7,354.9,210.7z"/>
		</g>
		<g>
			<path class="st0" d="M507.8,140.1c-0.3,0-0.7,0-1-0.1c-2.1-0.6-3.4-2.8-2.8-4.9c1.1-4.1,26.8-101.3,33.2-119
				c0.8-2.1,3.1-3.1,5.1-2.4c2.1,0.8,3.1,3.1,2.4,5.1c-6.3,17.4-32.7,117.3-33,118.4C511.2,138.9,509.6,140.1,507.8,140.1z"/>
		</g>
		<g>
			<path class="st0" d="M525.4,99.7c-1.7,0-3.5-0.2-5.5-0.5c-2.2-0.4-3.6-2.4-3.3-4.6c0.4-2.2,2.4-3.6,4.6-3.3
				c12,2,14.7-3.9,18.8-15.5c2.6-7.5,5.6-16,13.6-20c2-1,4.4-0.2,5.4,1.8c1,2,0.2,4.4-1.8,5.4c-5.1,2.6-7.3,8.8-9.7,15.5
				C544.2,88.1,540.1,99.7,525.4,99.7z"/>
		</g>
		<g>
			<path class="st0" d="M540.3,130.5c-1.6,0-3.1-0.4-4.4-1.1c-4.4-2.3-5.8-7.5-7.3-13c-2.2-8-4.1-13.3-10-14.8
				c-2.1-0.5-3.4-2.7-2.9-4.9c0.5-2.1,2.7-3.4,4.9-2.9c10.9,2.8,13.7,13,15.8,20.4c0.9,3.3,2,7.4,3.4,8.1c0.4,0.2,1.3,0.1,2.4-0.2
				c5.7-1.9,10.1-15.3,14-27.2c4.3-13.1,8.7-26.6,16.5-34c1.6-1.5,4.1-1.4,5.7,0.2c1.5,1.6,1.4,4.1-0.2,5.7
				c-6.3,5.9-10.4,18.5-14.4,30.6c-4.9,15-9.5,29.1-19.1,32.3C543.1,130.3,541.6,130.5,540.3,130.5z"/>
		</g>
		<g>
			<path class="st0" d="M579.7,119.1c-7.4,0-12.5-4.1-13-10.3c-0.5-6.3,3.7-13.6,11.5-20.1c-4.9-9.4-9.4-18.9-6.5-26.2
				c0.8-2.1,3.1-3,5.2-2.2c2.1,0.8,3,3.1,2.2,5.2c-1.5,3.8,2,11.5,5.6,18.5c8.1-5,20.9-10.8,40.4-14c2.2-0.4,4.2,1.1,4.6,3.3
				c0.4,2.2-1.1,4.2-3.3,4.6c-17.1,2.8-29.6,7.9-37.9,13.2c4.5,8.7,7.9,16.8,4.5,22.5C590.7,117.3,586.3,119.1,579.7,119.1z
				 M581.9,96c-5.2,4.7-7.5,9.2-7.3,12.1c0.2,2,1.9,3,5.1,3c5,0,6.1-1.2,6.3-1.6C587.3,107.5,584.7,101.5,581.9,96z"/>
		</g>
		<g>
			<path class="st1" d="M609.3,133"/>
		</g>
		<g>
			<path class="st1" d="M333.9,255.2"/>
		</g>
		<g>
			<path class="st0" d="M410.3,172c-8.8,0-14-6.4-14-17c0-37,18.9-49,28-49c4.9,0,8.6,1.3,11.1,4c3.3,3.6,4.5,9.2,3.9,18.2
				c-0.1,1.3-0.8,2.4-1.8,3.1c0.9,0.9,1.3,2.2,1,3.5c-2.6,12.9-5.8,21.7-10,27.6C423.9,168.9,417.9,172,410.3,172z M424.3,114
				c-5.3,0-20,9.7-20,41c0,9,4.4,9,6,9c7.4,0,15-3.7,20.4-30.7c0.2-1.1,0.9-2,1.7-2.6c-0.7-0.8-1.2-1.9-1.1-3
				c0.5-6.4-0.1-10.5-1.8-12.2C429,114.8,427.8,114,424.3,114z"/>
		</g>
		<g>
			<path class="st0" d="M476.8,150.7c-0.6,0-1.3,0-1.9-0.1c-0.3,0-0.5,0-0.6,0c-8.7,0-15.3-8.7-15.3-20.1
				c0-37.1,23.8-45.4,32.2-45.4c1.3,0,5.1,0,7.4,2.8c2.6,3.2,1.8,7.3,0.5,13.7c-0.5,2.5-1,5.3-1.5,8.5c-0.3,2.2-2.4,3.7-4.5,3.4
				c-2.2-0.3-3.7-2.3-3.4-4.5c0.5-3.4,1.1-6.5,1.6-8.9c0.5-2.5,1.1-5.5,1-6.9c-0.2,0-0.6-0.1-1.1-0.1c-6.3,0-24.2,6.9-24.2,37.4
				c0,6,2.7,12.1,7.3,12.1c0.3,0,0.7,0,1.1,0c11.3,0.7,22.3-7.3,32.5-23.8c1.2-1.9,3.6-2.5,5.5-1.3c1.9,1.2,2.5,3.6,1.3,5.5
				C503.3,141.4,490.6,150.7,476.8,150.7z"/>
		</g>
		<g>
			<path class="st0" d="M443.3,159c-4.3,0-7.9-2.2-10.1-6.3c-4.3-8.1-2.5-22-1-29.6c2.2-11.4,6.2-22.5,10.4-28.8
				c1.2-1.8,3.7-2.3,5.5-1.1c1.8,1.2,2.3,3.7,1.1,5.5c-7.7,11.5-13.9,40.9-9,50.2c1,1.8,2,2.1,3,2.1c8.3,0,11-4.9,14.6-13
				c0.6-1.3,1.2-2.6,1.8-3.8c1-2,3.4-2.8,5.4-1.8c2,1,2.8,3.4,1.8,5.4c-0.6,1.1-1.1,2.3-1.7,3.6C461.8,148.8,457.2,159,443.3,159z"
				/>
		</g>
	</g>
	<g>
		<g>
			<path class="st0" d="M255.1,128.6c-2.8,0-5.3-1.3-7-3.5c-7.9-10.8,3.4-48.2,20.1-99.7c2.6-8.1,5.1-15.8,7.2-22.6
				c0.7-2.1,2.9-3.3,5-2.6c2.1,0.7,3.3,2.9,2.6,5c-2.1,6.8-4.6,14.5-7.3,22.7c-6.2,18.9-13.1,40.4-17.6,58.3
				c-6.6,26.3-4.7,32.7-3.6,34.2c0.1,0.2,0.2,0.2,0.5,0.2c3.8,0,6.8-1.6,11-9.8c1-2,3.4-2.8,5.4-1.8c2,1,2.8,3.4,1.8,5.4
				C269.5,121.8,264.8,128.6,255.1,128.6z"/>
		</g>
		<g>
			<path class="st0" d="M10.8,158.5c-4.3,0-7.7-1.9-9.4-5.5c-8.3-16.5,23.1-70.3,41-94.1c1.3-1.8,3.8-2.1,5.6-0.8
				c1.8,1.3,2.1,3.8,0.8,5.6C24.5,96.1,3.8,140.1,8.5,149.5c0.2,0.4,0.5,1.1,2.3,1.1c17.8,0,32.5-19,43.2-33c0.7-0.9,1.4-1.8,2-2.6
				c1.4-1.7,3.9-2.1,5.6-0.7c1.7,1.4,2.1,3.9,0.7,5.6c-0.7,0.8-1.3,1.7-2,2.6C48.6,137.7,32.5,158.5,10.8,158.5z"/>
		</g>
		<g>
			<path class="st0" d="M30.2,263.5c-0.4,0-0.7-0.1-1.1-0.2c-1.9-0.5-3.1-2.4-2.9-4.4c16.1-113.2,21-187.8,16.4-194.8
				c-1.5-1.6-1.5-4,0.1-5.6c1.6-1.6,4.1-1.6,5.7,0c2.7,2.7,8.4,8.4-2.3,106.6c-2.7,24.7-5.8,49.3-8.2,67.2
				c12.6-28.1,32.7-72.6,44.4-96.5c1-2,3.4-2.8,5.4-1.8c2,1,2.8,3.4,1.8,5.4c-17.9,36.5-55.3,120.9-55.6,121.8
				C33.2,262.6,31.7,263.5,30.2,263.5z M42.7,64.2C42.7,64.2,42.7,64.2,42.7,64.2C42.7,64.2,42.7,64.2,42.7,64.2z"/>
		</g>
		<g>
			<path class="st0" d="M99.3,210C99.3,210,99.3,210,99.3,210c-2,0-3.7-1.5-4-3.5c-0.1-0.5-7-50.4-13.2-67.6
				c-0.8-2.1,0.3-4.4,2.4-5.1c2.1-0.8,4.4,0.3,5.1,2.4c3.6,10,7.3,29.5,10,45.3c9.6-49.6,35.1-160.2,75-179.2c2-0.9,4.4-0.1,5.3,1.9
				c0.9,2,0.1,4.4-1.9,5.3c-13.3,6.3-33.6,29.9-54.8,106.2c-12.9,46.3-19.9,90.3-19.9,90.8C103,208.6,101.3,210,99.3,210z"/>
		</g>
		<g>
			<path class="st0" d="M183.3,162c-4.6,0-8.3-2.6-10.5-7.2c-1.6-3.6-2.4-8.4-2.4-14.7c0-20.6,8.5-51.6,16.4-73.7
				c4.6-12.9,9.5-24,14-32.2c5.8-10.5,10.5-15.2,15.3-15.2c3.2,0,5.9,1.4,7.9,4.1c5.3,7.3,3.1,22.4,1.2,28.2
				c-7.8,24.3-21,30.7-30.7,35.3c-0.9,0.4-1.8,0.9-2.7,1.3c-1.2,0.6-2.5,0.5-3.5,0c-7.3,24.7-11,46.8-9.4,58.4
				c0.7,5.1,2.2,7.7,4.5,7.7c24.2,0,26-39.8,26-40.2c0.1-2.2,2-3.9,4.2-3.8c2.2,0.1,3.9,1.9,3.8,4.2c0,0.5-0.5,11.8-4.6,23.2
				C206.9,153.5,196.7,162,183.3,162z M216.2,27c-3.5,1.1-13.6,17.3-24.2,48.8c-0.4,1.2-0.8,2.4-1.2,3.6c0.1,0,0.1,0,0.2-0.1
				c9.3-4.4,19.8-9.5,26.5-30.5c1.9-5.9,2.7-17.3-0.1-21.1C217,27.1,216.6,27,216.2,27z M216.2,26.9L216.2,26.9z"/>
		</g>
		<g>
			<path class="st0" d="M149.4,114.5c-0.4,0-0.8-0.1-1.2-0.2c-2.1-0.7-3.3-2.9-2.6-5c0-0.2,5-15.6,7-21.5c0.7-2.1,3-3.2,5.1-2.5
				c2.1,0.7,3.2,3,2.5,5.1c-2,5.9-6.9,21.3-6.9,21.4C152.6,113.4,151.1,114.5,149.4,114.5z"/>
		</g>
		<g>
			<path class="st0" d="M148.3,181c-6.2,0-9.7-2.9-11.6-5.3c-7.3-9.6-2.7-28.8,3-49.4l0.7-2.4c0.6-2.1,2.8-3.4,4.9-2.8
				c2.1,0.6,3.4,2.8,2.8,4.9l-0.7,2.4c-3.4,12.3-9.8,35.2-4.4,42.4c0.7,0.9,2,2.1,5.2,2.1c5.7,0,14.5-7.2,22.3-27.4
				c0.8-2.1,3.1-3.1,5.2-2.3c2.1,0.8,3.1,3.1,2.3,5.2C170.1,169.1,159.2,181,148.3,181z"/>
		</g>
		<g>
			<path class="st0" d="M223.3,139c-4.7,0-8.7-2.8-11.2-7.9c-1.7-3.5-2.8-8-2.8-12.1c0-19.2,7-30.3,12.9-36.3
				c7.3-7.4,15.7-10,20.7-10c4.5,0,9.6,0.3,12.6,4.2c2.7,3.5,2.9,8.8,0.7,17.1c-0.6,2.1-2.8,3.4-4.9,2.8c-2.1-0.6-3.4-2.8-2.8-4.9
				c2-7.6,1.1-9.7,0.7-10.1c-0.8-1.1-4.8-1.1-6.2-1.1c-5.1,0-25.6,6.8-25.6,38.2c0,5,2.3,12,6,12c8.9,0,19.7-3.5,23-30.5
				c0.3-2.2,2.3-3.8,4.5-3.5c2.2,0.3,3.7,2.3,3.5,4.5C251.1,126.7,241,139,223.3,139z"/>
		</g>
		<g>
			<path class="st1" d="M282.3,143.8"/>
		</g>
		<g>
			<path class="st1" d="M53.8,270.6"/>
		</g>
	</g>
	<g>
		<path class="st0" d="M335.9,266.2c-1.1,0-2.3-0.5-3.1-1.4c-1.4-1.7-1.2-4.2,0.5-5.6c52.7-44.2,167.7-102.3,277.2-123
			c2.2-0.4,4.3,1,4.7,3.2c0.4,2.2-1,4.3-3.2,4.7C548.1,156,490,179.4,452.4,196.8c-46.3,21.5-87.8,46.5-114,68.4
			C337.7,265.9,336.8,266.2,335.9,266.2z"/>
	</g>
	<g>
		<path class="st0" d="M40.9,290.2c-1.1,0-2.3-0.5-3.1-1.4c-1.4-1.7-1.2-4.2,0.5-5.6c20.9-17.5,49.5-40.4,85.4-62.1
			c36.2-21.9,74.8-39.5,117.9-53.8c2.1-0.7,4.4,0.4,5.1,2.5c0.7,2.1-0.4,4.4-2.5,5.1C150.5,206,92.4,248.2,43.5,289.2
			C42.7,289.9,41.8,290.2,40.9,290.2z"/>
	</g>
</g>
</svg>